<svg width="237" height="151" viewBox="0 0 237 151" fill="none" xmlns="http://www.w3.org/2000/svg">
<path d="M0.591995 0.18301C2.911 0.35301 5.229 0.268012 7.548 0.276012H80.9C80.9 17.6267 80.918 34.9773 80.954 52.328C81.6108 52.409 82.2713 52.4554 82.933 52.467H135.047C135.564 52.4582 136.08 52.4222 136.593 52.359C136.74 34.993 136.593 17.627 136.663 0.25901H189.179C198.453 0.21301 207.728 0.367011 217.002 0.174011V150.62H0.599997C0.594663 100.477 0.591995 50.331 0.591995 0.18301Z" fill="#E7BF55"/>
<path d="M80.9 0.291016H136.669C136.607 17.657 136.754 35.023 136.599 52.391C136.081 52.445 135.563 52.484 135.053 52.499H82.94C82.2812 52.4898 81.6233 52.4461 80.969 52.368C80.861 34.993 80.969 17.634 80.9 0.291016Z" fill="#DBB551"/>
<path d="M16.389 101.682H88.806V129.567H16.389V101.682Z" fill="#F2F2F2"/>
<path d="M52.0709 30.5872C51.6829 30.5872 51.5839 30.3932 51.7799 30.1002L53.8209 27.4752C53.9529 27.321 54.1169 27.1976 54.3015 27.1135C54.4862 27.0293 54.687 26.9866 54.8899 26.9882H89.5899C89.9779 26.9882 90.0769 27.2792 89.8809 27.5722L88.2309 30.1022C88.1152 30.2586 87.9698 30.3907 87.803 30.4909C87.6362 30.5911 87.4513 30.6574 87.2589 30.6862L52.0709 30.5872ZM37.3889 39.5302C37.0009 39.5302 36.9019 39.3362 37.0979 39.0432L39.1389 36.4182C39.2709 36.264 39.4349 36.1406 39.6195 36.0565C39.8042 35.9723 40.005 35.9296 40.2079 35.9312H84.5389C84.6143 35.9204 84.6912 35.9292 84.7623 35.9565C84.8334 35.9839 84.8964 36.0289 84.9452 36.0874C84.994 36.1459 85.027 36.2159 85.0411 36.2908C85.0552 36.3657 85.05 36.4429 85.0259 36.5152L84.2479 38.8482C84.1888 39.0296 84.0703 39.1859 83.9116 39.2918C83.7529 39.3977 83.5631 39.4472 83.3729 39.4322L37.3889 39.5302ZM60.9129 48.4732C60.5249 48.4732 60.4259 48.1822 60.6219 47.8892L61.9789 45.4592C62.0857 45.2942 62.2287 45.1557 62.3972 45.0545C62.5657 44.9533 62.7551 44.892 62.9509 44.8752H82.3959C82.7839 44.8752 82.9799 45.1662 82.9799 45.5562L82.7859 47.8892C82.7742 48.0659 82.6986 48.2324 82.5734 48.3577C82.4481 48.4829 82.2816 48.5584 82.1049 48.5702L60.9129 48.4732ZM161.812 28.8372C155.688 30.3932 151.512 31.5592 145.482 33.1172C144.02 33.5052 143.926 33.6042 142.663 32.1452C141.441 30.5816 139.879 29.318 138.094 28.4512C131.97 25.4382 126.04 26.3132 120.5 29.9132C117.35 31.8278 114.77 34.5498 113.026 37.7971C111.282 41.0445 110.438 44.699 110.582 48.3822C110.541 52.0862 111.851 55.6782 114.266 58.4868C116.681 61.2954 120.037 63.1284 123.705 63.6432C130.315 64.5182 135.856 62.1812 140.23 57.2282C141.105 56.1592 141.883 54.9922 142.855 53.6282H124.095C122.054 53.6282 121.567 52.3652 122.248 50.7122C123.511 47.6992 125.848 42.6442 127.206 40.1122C127.415 39.6438 127.756 39.2469 128.188 38.9703C128.62 38.6938 129.123 38.5498 129.636 38.5562H165.02C164.826 41.1812 164.826 43.8052 164.436 46.4302C163.428 53.3477 160.688 59.8981 156.469 65.4722C149.474 74.7062 140.333 80.4422 128.769 81.9972C119.243 83.2602 110.395 81.4132 102.621 75.5822C99.1654 73.0535 96.2805 69.8264 94.1533 66.1103C92.0262 62.3942 90.7044 58.2723 90.2739 54.0122C89.0109 43.4122 92.1209 33.8902 98.5359 25.5312C105.116 16.6449 114.858 10.6248 125.749 8.71416C134.886 7.06116 143.635 8.13016 151.509 13.4772C156.546 16.8249 160.472 21.5956 162.789 27.1822C163.368 28.0602 162.979 28.5462 161.812 28.8372Z" fill="#00ACD7"/>
<path d="M193.987 82.5922C185.141 82.3982 177.074 79.8702 170.268 74.0382C164.606 69.2671 160.873 62.5984 159.768 55.2772C158.018 44.2932 161.031 34.5772 167.642 25.9212C174.742 16.5902 183.293 11.7292 194.86 9.68816C204.778 7.93816 214.107 8.91016 222.56 14.6462C230.24 19.8952 235.002 26.9912 236.266 36.3222C237.919 49.4452 234.128 60.1382 225.087 69.2752C218.749 75.6881 210.614 80.0266 201.758 81.7172C199.139 82.2022 196.515 82.3022 193.987 82.5922ZM217.122 43.3212C217.087 42.2471 216.989 41.176 216.831 40.1132C216.149 35.9215 213.83 32.1722 210.384 29.6902C206.938 27.2082 202.648 26.1967 198.456 26.8782C197.967 26.9575 197.482 27.0595 197.002 27.1842C187.962 29.2252 182.129 34.9612 179.991 44.0972C179.107 47.722 179.517 51.5418 181.149 54.8966C182.782 58.2515 185.536 60.9306 188.934 62.4712C191.441 63.6034 194.176 64.1399 196.925 64.0385C199.674 63.9372 202.362 63.2009 204.779 61.8872C212.458 57.9022 216.638 51.6812 217.127 43.3212H217.122Z" fill="#00ACD7"/>
<path d="M15.912 128L21.016 95.88H28.32L29.64 106C29.7867 107.056 29.8747 107.98 29.904 108.772C29.9627 109.564 29.9773 110.121 29.948 110.444C30.036 110.121 30.212 109.564 30.476 108.772C30.7693 107.98 31.1507 107.056 31.62 106L36.152 95.88H43.72L38.616 128H32.588L33.996 119.2C34.26 117.587 34.568 115.9 34.92 114.14C35.272 112.351 35.6387 110.576 36.02 108.816C36.4307 107.056 36.8267 105.413 37.208 103.888C37.5893 102.333 37.9267 100.984 38.22 99.84L32.236 114.36H26.648L25.064 99.84C25.0347 100.925 24.976 102.231 24.888 103.756C24.8293 105.252 24.7267 106.88 24.58 108.64C24.4333 110.371 24.2573 112.145 24.052 113.964C23.8467 115.783 23.612 117.528 23.348 119.2L21.94 128H15.912ZM49.1588 128.44C47.0175 128.44 45.2135 128.044 43.7468 127.252C42.3095 126.431 41.2681 125.301 40.6228 123.864C40.0068 122.397 39.8455 120.696 40.1388 118.76L41.0628 113.04C41.3855 111.104 42.0895 109.417 43.1748 107.98C44.2601 106.513 45.6535 105.384 47.3548 104.592C49.0855 103.771 51.0215 103.36 53.1628 103.36C55.3335 103.36 57.1375 103.771 58.5748 104.592C60.0415 105.384 61.0828 106.513 61.6988 107.98C62.3441 109.417 62.5055 111.104 62.1828 113.04L61.2588 118.76C60.9655 120.696 60.2615 122.397 59.1468 123.864C58.0615 125.301 56.6681 126.431 54.9668 127.252C53.2655 128.044 51.3295 128.44 49.1588 128.44ZM50.0828 122.72C51.3735 122.72 52.4001 122.383 53.1628 121.708C53.9548 121.004 54.4535 120.021 54.6588 118.76L55.5828 113.04C55.7881 111.749 55.5975 110.767 55.0108 110.092C54.4535 109.417 53.5295 109.08 52.2388 109.08C50.9775 109.08 49.9508 109.417 49.1588 110.092C48.3668 110.767 47.8681 111.749 47.6628 113.04L46.7388 118.76C46.5335 120.021 46.7241 121.004 47.3108 121.708C47.8975 122.383 48.8215 122.72 50.0828 122.72ZM68.6336 128.44C66.199 128.44 64.3803 127.589 63.1776 125.888C62.0043 124.187 61.6376 121.884 62.0776 118.98L63.0896 112.82C63.383 110.884 63.9696 109.212 64.8496 107.804C65.759 106.396 66.8736 105.311 68.1936 104.548C69.543 103.756 71.0243 103.36 72.6376 103.36C74.6323 103.36 76.099 103.947 77.0376 105.12C78.0056 106.264 78.3283 107.877 78.0056 109.96L76.6856 108.42H78.2256L78.9736 102.48L80.0296 95.88H86.6296L81.5256 128H75.1456L75.8936 123.38H74.3536L76.1136 121.84C75.791 123.923 74.955 125.551 73.6056 126.724C72.2856 127.868 70.6283 128.44 68.6336 128.44ZM71.9336 122.72C73.1363 122.72 74.119 122.383 74.8816 121.708C75.6736 121.004 76.1723 120.021 76.3776 118.76L77.3016 113.04C77.507 111.779 77.3163 110.811 76.7296 110.136C76.1723 109.432 75.2923 109.08 74.0896 109.08C72.8576 109.08 71.8603 109.432 71.0976 110.136C70.335 110.811 69.851 111.779 69.6456 113.04L68.7216 118.76C68.5163 120.021 68.6923 121.004 69.2496 121.708C69.807 122.383 70.7016 122.72 71.9336 122.72ZM97.4192 128L102.523 95.88H109.123L107.143 108.2H114.535L116.515 95.88H123.115L118.011 128H111.411L113.567 114.36H106.175L104.019 128H97.4192ZM130.094 128.44C127.953 128.44 126.149 128.044 124.682 127.252C123.215 126.431 122.159 125.301 121.514 123.864C120.898 122.397 120.737 120.696 121.03 118.76L121.954 113.04C122.277 111.104 122.981 109.417 124.066 107.98C125.181 106.513 126.589 105.384 128.29 104.592C130.021 103.771 131.957 103.36 134.098 103.36C136.239 103.36 138.029 103.771 139.466 104.592C140.933 105.384 141.974 106.513 142.59 107.98C143.235 109.417 143.397 111.104 143.074 113.04L142.37 117.44H127.542L127.322 118.76C127.087 120.285 127.278 121.444 127.894 122.236C128.51 122.999 129.551 123.38 131.018 123.38C132.045 123.38 132.895 123.204 133.57 122.852C134.274 122.5 134.773 122.016 135.066 121.4H141.534C140.977 122.808 140.126 124.04 138.982 125.096C137.838 126.152 136.503 126.973 134.978 127.56C133.482 128.147 131.854 128.44 130.094 128.44ZM136.606 114.052L136.782 112.952C137.017 111.456 136.855 110.312 136.298 109.52C135.741 108.728 134.743 108.332 133.306 108.332C131.869 108.332 130.725 108.743 129.874 109.564C129.023 110.385 128.481 111.544 128.246 113.04L128.114 113.7L137.134 113.612L136.606 114.052ZM156.521 128C153.94 128 151.989 127.223 150.669 125.668C149.378 124.084 148.924 122.001 149.305 119.42L152.077 101.82H144.597L145.565 95.88H159.645L155.905 119.42C155.788 120.212 155.92 120.857 156.301 121.356C156.712 121.825 157.313 122.06 158.105 122.06H165.145L164.221 128H156.521ZM163.412 135.92L168.516 103.8H174.896L174.148 108.42H175.688L173.928 109.96C174.25 107.877 175.072 106.264 176.392 105.12C177.741 103.947 179.413 103.36 181.408 103.36C183.842 103.36 185.646 104.225 186.82 105.956C188.022 107.657 188.404 109.945 187.964 112.82L186.952 118.98C186.658 120.887 186.057 122.559 185.148 123.996C184.268 125.404 183.168 126.504 181.848 127.296C180.528 128.059 179.046 128.44 177.404 128.44C175.409 128.44 173.928 127.868 172.96 126.724C172.021 125.551 171.713 123.923 172.036 121.84L173.356 123.38H171.816L171.068 129.32L170.012 135.92H163.412ZM175.952 122.72C177.184 122.72 178.181 122.383 178.944 121.708C179.706 121.004 180.19 120.021 180.396 118.76L181.32 113.04C181.525 111.749 181.349 110.767 180.792 110.092C180.234 109.417 179.34 109.08 178.108 109.08C176.905 109.08 175.908 109.432 175.116 110.136C174.353 110.811 173.869 111.779 173.664 113.04L172.74 118.76C172.534 120.021 172.71 121.004 173.268 121.708C173.854 122.383 174.749 122.72 175.952 122.72ZM197.363 128.44C195.221 128.44 193.417 128.044 191.951 127.252C190.484 126.431 189.428 125.301 188.783 123.864C188.167 122.397 188.005 120.696 188.299 118.76L189.223 113.04C189.545 111.104 190.249 109.417 191.335 107.98C192.449 106.513 193.857 105.384 195.559 104.592C197.289 103.771 199.225 103.36 201.367 103.36C203.508 103.36 205.297 103.771 206.735 104.592C208.201 105.384 209.243 106.513 209.859 107.98C210.504 109.417 210.665 111.104 210.343 113.04L209.639 117.44H194.811L194.591 118.76C194.356 120.285 194.547 121.444 195.163 122.236C195.779 122.999 196.82 123.38 198.287 123.38C199.313 123.38 200.164 123.204 200.839 122.852C201.543 122.5 202.041 122.016 202.335 121.4H208.803C208.245 122.808 207.395 124.04 206.251 125.096C205.107 126.152 203.772 126.973 202.247 127.56C200.751 128.147 199.123 128.44 197.363 128.44ZM203.875 114.052L204.051 112.952C204.285 111.456 204.124 110.312 203.567 109.52C203.009 108.728 202.012 108.332 200.575 108.332C199.137 108.332 197.993 108.743 197.143 109.564C196.292 110.385 195.749 111.544 195.515 113.04L195.383 113.7L204.403 113.612L203.875 114.052ZM210.237 128L214.065 103.8H220.225L219.477 108.42H221.149L218.817 111.236C219.228 108.625 220.137 106.66 221.545 105.34C222.983 104.02 224.86 103.36 227.177 103.36C229.847 103.36 231.783 104.167 232.985 105.78C234.217 107.393 234.599 109.667 234.129 112.6L233.821 114.58H226.781L227.045 113.04C227.251 111.72 227.045 110.693 226.429 109.96C225.843 109.227 224.948 108.86 223.745 108.86C222.484 108.86 221.457 109.227 220.665 109.96C219.903 110.693 219.419 111.72 219.213 113.04L216.837 128H210.237Z" fill="#CE3262"/>
</svg>
